<svg id="Layer_1" data-name="Layer 1" xmlns="http://www.w3.org/2000/svg" viewBox="0 0 160 140"><defs><style>.cls-1{fill:none;}.cls-2{fill:#97b93e;}.cls-3{fill:#77963c;}.cls-4{fill:#d0da51;}.cls-5{fill:#00539b;}.cls-6{fill:#fff;}.cls-7,.cls-8{isolation:isolate;}.cls-8{font-size:10.01px;fill:#1377bc;font-family:ArialMT, Arial;}</style></defs><title>Observatorio</title><rect class="cls-1" width="160" height="140"/><g id="Group_447" data-name="Group 447"><g id="Group_446" data-name="Group 446"><path id="Path_11" data-name="Path 11" class="cls-2" d="M81.86,61.52a23.06,23.06,0,1,0-3,3.57L102.1,91.42V75.63ZM63,65.32A16.51,16.51,0,1,1,79.46,48.81,16.51,16.51,0,0,1,63,65.32Z"/><path id="Path_12" data-name="Path 12" class="cls-3" d="M62.5,82.77A33.35,33.35,0,0,1,50.68,80.6,31.8,31.8,0,0,1,33.16,65.15l3-1.45A28.83,28.83,0,0,0,51.9,77.53c8,3,16.85,2.51,23.54-1.33l1.67,2.9A30.4,30.4,0,0,1,62.5,82.77Z"/><path id="Path_13" data-name="Path 13" class="cls-4" d="M62.78,77A28.29,28.29,0,0,1,53,75.24,26.17,26.17,0,0,1,38.57,62.47l3-1.45a23,23,0,0,0,12.61,11.1c6.47,2.4,13.5,2,18.91-1.06L74.77,74A24.3,24.3,0,0,1,62.78,77Z"/><circle id="Ellipse_1" data-name="Ellipse 1" class="cls-5" cx="58.71" cy="58.73" r="5.58"/><circle id="Ellipse_2" data-name="Ellipse 2" class="cls-6" cx="60.05" cy="55.33" r="1.84"/><circle id="Ellipse_3" data-name="Ellipse 3" class="cls-6" cx="57.54" cy="56.73" r="0.89"/></g></g><g id="Observatorio_Nacional_de_la_Calidad_de_los_Servicios_Públicos" data-name="Observatorio Nacional de la Calidad de los Servicios Públicos" class="cls-7"><text class="cls-8" transform="translate(24.62 94.56)">Observatorio</text><text class="cls-8" transform="translate(24.62 102.91)">Nacional de la Calidad</text><text class="cls-8" transform="translate(24.62 111.25)">de los Servicios Públicos</text></g></svg>