<?xml version="1.0" encoding="utf-8"?>
<!-- Generator: Adobe Illustrator 22.0.1, SVG Export Plug-In . SVG Version: 6.00 Build 0)  -->
<svg version="1.1" id="Layer_1" xmlns="http://www.w3.org/2000/svg" xmlns:xlink="http://www.w3.org/1999/xlink" x="0px" y="0px"
	 viewBox="0 0 160 140" style="enable-background:new 0 0 160 140;" xml:space="preserve">
<style type="text/css">
	.st0{fill:#FFFFFF;}
	.st1{fill:#CB202F;}
	.st2{fill:#1C325F;}
	.st3{fill:url(#SVGID_1_);}
	.st4{fill:#142A50;}
	.st5{fill:#19478A;}
</style>
<title>servicio_enlinea</title>
<g>
	<rect class="st0" width="160" height="140"/>
	<g>
		<rect x="48.1" y="32.1" class="st1" width="59.3" height="14.7"/>
		<rect x="48.1" y="14.7" class="st2" width="71.9" height="14.8"/>
		<g>
			<path class="st0" d="M51.1,20c0.3-2.1,3.4-2.5,4.9-1.3c0.7,0.6,0,1.5-0.7,1.1c-0.8-0.5-2.6-0.8-2.9,0.4c-0.3,1.8,4.4,0.8,4.4,3.7
				c-0.1,2.8-4.1,2.8-5.6,1.6c-0.4-0.3-0.3-0.8-0.2-1.1c0.3-0.3,0.6-0.4,1-0.1c0.9,0.6,3.2,1.1,3.4-0.5C55.3,22.2,50.7,23.1,51.1,20
				z"/>
			<path class="st0" d="M59.8,25.9c-0.4,0-0.7-0.3-0.7-0.7v-6.2c0-0.4,0.3-0.7,0.7-0.7h3.9c1,0,1,1.4,0,1.4h-3.1v1.6h2.7
				c1,0,1,1.4,0,1.4h-2.7v1.6h3.3c1,0,1.1,1.4,0,1.4H59.8z"/>
			<path class="st0" d="M68.4,25.2c0,0.9-1.4,1-1.4,0v-6.2c0-0.4,0.3-0.7,0.7-0.7h2.9c2.8,0,3.3,3.7,1,4.6l1.4,1.8
				c0.6,0.8-0.6,1.6-1.2,0.8l-1.6-2.4h-1.7V25.2z M68.4,22h2.1c1.4,0,1.5-2.3,0-2.3h-2.1V22z"/>
			<path class="st0" d="M77.9,25.5l-2.9-6c-0.4-0.9,0.9-1.6,1.3-0.7l1,2.2l1.3,2.9l1.2-2.9l1-2.2c0.4-0.8,1.7-0.3,1.3,0.6l-2.8,6.1
				C79.1,26.1,78.3,26.3,77.9,25.5z"/>
			<path class="st0" d="M84.4,19.1c0-0.9,1.4-0.9,1.4,0v6.2c0,0.9-1.4,0.9-1.4,0V19.1z"/>
			<path class="st0" d="M88.2,22.1c0-2.1,1.3-3.9,3.8-3.9c0.9,0,1.7,0.3,2.5,1c0.3,0.3,0.3,0.8,0,1.1c-0.3,0.3-0.7,0.2-1,0
				c-0.4-0.5-0.9-0.6-1.5-0.6c-1.7,0-2.5,1.2-2.5,2.5c0,1.4,0.8,2.6,2.5,2.6c0.6,0,1.2-0.3,1.7-0.7c0.3-0.3,0.8-0.1,1,0.1
				c0.2,0.2,0.3,0.6-0.1,1C93.9,25.9,93,26,92.1,26C89.4,26,88.2,24.2,88.2,22.1z"/>
			<path class="st0" d="M97.4,19.1c0-0.9,1.4-0.9,1.4,0v6.2c0,0.9-1.4,0.9-1.4,0V19.1z"/>
			<path class="st0" d="M105.3,26.1c-2,0.1-4.1-1.3-4.1-3.9c0-2.7,2.1-4,4.1-4c1.9,0.1,3.9,1.4,3.9,4S107.2,26.1,105.3,26.1z
				 M105.2,19.6c-1.2,0-2.6,0.9-2.6,2.6c0,1.7,1.3,2.6,2.6,2.6c1.3,0,2.6-0.9,2.6-2.6C107.8,20.4,106.5,19.6,105.2,19.6z"/>
			<path class="st0" d="M111.5,20c0.3-2.1,3.4-2.5,4.9-1.3c0.7,0.6,0,1.5-0.7,1.1c-0.8-0.5-2.6-0.8-2.9,0.4
				c-0.3,1.8,4.4,0.8,4.4,3.7c-0.1,2.8-4.1,2.8-5.6,1.6c-0.4-0.3-0.3-0.8-0.2-1.1c0.3-0.3,0.6-0.4,1-0.1c0.9,0.6,3.2,1.1,3.4-0.5
				C115.7,22.2,111.2,23.1,111.5,20z"/>
		</g>
		<g>
			<path class="st0" d="M51.9,44.1c-0.4,0-0.7-0.3-0.7-0.7v-6.2c0-0.4,0.3-0.7,0.7-0.7h3.9c1,0,1,1.4,0,1.4h-3.1v1.6h2.7
				c1,0,1,1.4,0,1.4h-2.7v1.6H56c1,0,1.1,1.4,0,1.4H51.9z"/>
			<path class="st0" d="M58.6,37.3c0-0.4,0.1-0.8,0.7-0.8c0.4,0,0.5,0.1,0.8,0.4l3.6,4.5v-4.2c0-0.4,0.3-0.8,0.7-0.8
				c0.4,0,0.8,0.4,0.8,0.8v6.1c0,0.5-0.3,0.7-0.6,0.8c-0.4,0-0.6-0.1-0.9-0.4L60,39.1v4.2c0,0.5-0.3,0.8-0.7,0.8
				c-0.4,0-0.7-0.3-0.7-0.8V37.3z"/>
			<path class="st0" d="M71.1,37.2c0-0.4,0.3-0.7,0.7-0.7c0.3,0,0.6,0.3,0.6,0.7v5.5h3c1.1,0,1.1,1.4,0,1.4h-3.6
				c-0.4,0-0.7-0.3-0.7-0.7V37.2z"/>
			<path class="st0" d="M79,34.1c0.7-0.5,1.5,0.5,0.8,1l-1.2,0.8c-0.7,0.4-1.4-0.5-0.7-1L79,34.1z M78,37.2c0-0.9,1.4-0.9,1.4,0v6.2
				c0,0.9-1.4,0.9-1.4,0V37.2z"/>
			<path class="st0" d="M81.8,37.3c0-0.4,0.1-0.8,0.7-0.8c0.4,0,0.5,0.1,0.8,0.4l3.6,4.5v-4.2c0-0.4,0.3-0.8,0.7-0.8
				c0.4,0,0.8,0.4,0.8,0.8v6.1c0,0.5-0.3,0.7-0.6,0.8c-0.4,0-0.6-0.1-0.9-0.4l-3.6-4.6v4.2c0,0.5-0.3,0.8-0.7,0.8s-0.7-0.3-0.7-0.8
				V37.3z"/>
			<path class="st0" d="M91.1,44.1c-0.4,0-0.7-0.3-0.7-0.7v-6.2c0-0.4,0.3-0.7,0.7-0.7H95c1,0,1,1.4,0,1.4h-3.1v1.6h2.7
				c1,0,1,1.4,0,1.4h-2.7v1.6h3.3c1,0,1.1,1.4,0,1.4H91.1z"/>
			<path class="st0" d="M97.6,44.1c-0.3-0.2-0.6-0.6-0.3-1l3.1-6.1c0.3-0.6,1.1-0.6,1.4,0l3.1,6.1c0.4,0.8-0.9,1.5-1.3,0.7l-0.5-1
				h-4l-0.5,1C98.4,44.1,98,44.2,97.6,44.1z M102.3,41.3l-1.2-2.7l-1.3,2.7H102.3z"/>
		</g>
		<g>
			
				<linearGradient id="SVGID_1_" gradientUnits="userSpaceOnUse" x1="43.1417" y1="3381.3655" x2="106.418" y2="3338.377" gradientTransform="matrix(1 0 0 1 0 -3259.5747)">
				<stop  offset="0" style="stop-color:#2490CF"/>
				<stop  offset="0.6282" style="stop-color:#33ADE3"/>
				<stop  offset="0.8683" style="stop-color:#39B9EB"/>
			</linearGradient>
			<path class="st3" d="M52.5,72.6H118v41.8h-66c-1.2,0-2.2-0.9-2.2-1.9l-0.1-37.4C49.7,73.7,50.9,72.6,52.5,72.6z"/>
			<path class="st4" d="M49.5,116.6c-1,0.1-1.8-0.7-1.8-1.6v-9.4c0.1-1.1,1-1.9,2-1.9h0.4c1.1,0,2,0.9,2,1.9v5.4
				c0.1,0.8,0.8,1.4,1.6,1.3h60.6c0.7,0.1,1.5-0.5,1.5-1.3V75.7c-0.1-0.9-0.7-1.5-1.6-1.5h-5.4c-1.1,0-2-1-2-2.1v-0.1
				c0-1.1,0.9-2,2-2.1h9.3c1-0.1,1.8,0.7,1.8,1.6V115c-0.1,1-0.8,1.7-1.9,1.6H49.5z"/>
			<path class="st4" d="M102.5,121.1H85.8v-1.2c0-1.2-1-2.1-2.1-2.1c-1.2,0-2.1,0.9-2.1,2.1v1.2H64.8c-1.2,0-2.1,0.9-2.1,2.1
				c0,1.2,1,2.1,2.1,2.1h37.7c1.2,0,2.1-0.9,2.1-2.1C104.6,122,103.7,121.1,102.5,121.1z"/>
			<g>
				<path class="st5" d="M103.3,86.2c0,0.5-0.3,0.8-0.7,0.8c0,0,0,0-0.1,0H102c-0.9,0-1.7,0.6-1.8,1.5L98.7,100
					c0,0.4-0.4,0.7-0.7,0.7h-5c-0.4,0-0.7-0.3-0.7-0.7l-1.5-11.5c-0.1-0.8-0.3-1.5-0.8-1.5h-0.5c-0.5,0-0.7-0.4-0.7-0.7
					c0,0,0,0,0-0.1l2.9-14.7c0-0.4,0.4-0.6,0.7-0.6h9.1c0.4,0,0.7,0.3,0.7,0.6L103.3,86.2z"/>
				<ellipse class="st5" cx="96.4" cy="58.9" rx="4.7" ry="4.6"/>
				<path class="st4" d="M96.4,52.2c-3.7,0-6.8,3-6.8,6.6s3.1,6.6,6.8,6.6s6.8-3,6.8-6.6S100.1,52.2,96.4,52.2z M96.4,62.1
					c-1.9,0-3.4-1.5-3.4-3.3s1.5-3.3,3.4-3.3s3.4,1.5,3.4,3.3l0,0C99.7,60.7,98.2,62.1,96.4,62.1z"/>
				<path class="st4" d="M105.7,87L104.2,72c-0.2-1.6-1.6-2.9-3.4-2.9h-8.7c-0.9,0-1.8,0.7-1.8,1.7c0,0.9,0.7,1.7,1.8,1.7l0,0h8.7
					l1.3,12.8h-1.6c-0.8,0-1.5,0.6-1.7,1.4l-1.5,11.5l-3.7-0.1l-0.9-7c-0.1-0.9-1-1.5-2-1.5c-0.9,0.1-1.6,1-1.5,1.9l0.9,7
					c0.2,1.7,1.7,3.1,3.5,3.1h3.7c1.7,0,3.1-1.2,3.3-2.8l1.3-10h2c0.9,0,1.7-0.7,1.7-1.6C105.7,87,105.7,87,105.7,87L105.7,87z"/>
				<path class="st1" d="M41.9,86.2c0,0.5,0.3,0.8,0.7,0.8c0,0,0,0,0.1,0h0.5c0.9,0,1.7,0.6,1.7,1.5l1.5,11.5c0,0.4,0.4,0.7,0.7,0.7
					h5c0.4,0,0.7-0.3,0.7-0.7l1.5-11.5c0.1-0.8,0.3-1.5,0.8-1.5h0.5c0.5,0,0.7-0.4,0.7-0.7c0,0,0,0,0-0.1l-2.9-14.7
					c0-0.4-0.4-0.6-0.7-0.6h-9.1c-0.4,0-0.7,0.3-0.7,0.6L41.9,86.2z"/>
				<path class="st1" d="M54.9,58.9c0,2.6-2.1,4.6-4.7,4.6c-2.6,0-4.7-2.1-4.7-4.6s2.1-4.6,4.7-4.6l0,0
					C52.8,54.1,54.9,56.3,54.9,58.9z"/>
				<path class="st4" d="M50.2,52.2c-3.7,0-6.8,3-6.8,6.6s3.1,6.6,6.8,6.6s6.8-3,6.8-6.6C56.9,55.2,53.9,52.2,50.2,52.2z M50.2,62.1
					c-1.9,0-3.4-1.5-3.4-3.3s1.5-3.3,3.4-3.3s3.4,1.5,3.4,3.3l0,0C53.6,60.7,52.1,62.1,50.2,62.1z"/>
				<path class="st4" d="M54.9,89.6c-0.9-0.1-1.9,0.5-2,1.5L52,98.1L48.2,98l-1.5-11.4c-0.1-0.8-0.8-1.4-1.7-1.4h-1.5l1.3-12.8h8.6
					c0.9,0,1.8-0.7,1.8-1.7c0-0.9-0.7-1.7-1.8-1.7h-8.6c-1.8,0-3.2,1.3-3.4,3L40,87c-0.1,0.5,0.1,0.9,0.5,1.3
					c0.3,0.4,0.7,0.5,1.2,0.5h2l1.3,10c0.2,1.6,1.6,2.8,3.3,2.9H52c1.8,0,3.3-1.3,3.5-3l0.9-7c0.2-0.9-0.5-1.8-1.5-1.9
					C54.9,89.6,54.9,89.6,54.9,89.6z"/>
				<path class="st4" d="M72.8,50c-4.3,0-7.8,3.5-7.8,7.6s3.5,7.6,7.8,7.6c4.3,0,7.8-3.4,7.8-7.6C80.5,53.4,77.1,50,72.8,50z
					 M75.7,60.5c-0.8,0.7-1.8,1.2-2.9,1.2c-2.3,0-4.2-1.8-4.2-4s1.8-4.1,4.2-4.1s4.2,1.8,4.2,4.1C76.9,58.8,76.5,59.8,75.7,60.5z"/>
				<ellipse class="st0" cx="72.8" cy="57.6" rx="4.2" ry="4.1"/>
				<path class="st4" d="M83.1,72c-0.2-1.6-1.6-3-3.4-3H65.7c-1.8,0-3.2,1.3-3.4,3l-1.5,15.2c-0.1,0.5,0.1,0.9,0.5,1.3
					c0.3,0.4,0.7,0.5,1.2,0.5h2l2.1,13.7c0.2,1.6,1.6,2.9,3.3,2.9h5.9c1.7,0,3.1-1.3,3.3-2.9L81,89h2c0.5,0,0.9-0.2,1.2-0.5
					c0.3-0.4,0.5-0.8,0.4-1.3L83.1,72z M79.6,85.6c-0.8,0-1.5,0.6-1.7,1.5l-0.7,5l-1.5,10.2h-5.9L68.3,92l-0.7-5
					c-0.1-0.8-0.8-1.5-1.6-1.5h-1.5l1.3-13.1h14.1l1.3,13.1H79.6z"/>
				<path class="st0" d="M81.1,85.6h-1.5c-0.8,0-1.5,0.6-1.6,1.5l-0.7,5l-1.5,10.2H74V91.4c0-0.7-0.6-1.3-1.3-1.3
					c-0.7,0-1.3,0.5-1.3,1.3l0,0v10.8h-1.7L68.3,92l-0.7-5c-0.1-0.8-0.8-1.4-1.6-1.5h-1.6l1.3-13.1h14.1L81.1,85.6z"/>
				<path class="st4" d="M74,91.4v10.9c0,0.7-0.6,1.3-1.3,1.3c-0.7,0-1.3-0.5-1.3-1.3V91.4c0-0.7,0.6-1.3,1.3-1.3
					C73.4,90.1,74,90.8,74,91.4L74,91.4z"/>
			</g>
		</g>
	</g>
</g>
</svg>
